HIERARCHY
ROOT Hips
{
	OFFSET 0.000000 0.000000 0.000000
	CHANNELS 6 Xposition Yposition Zposition Zrotation Yrotation Xrotation 
	JOINT LHipJoint
	{
		OFFSET 0.000000 0.000000 0.000000
		CHANNELS 3 Zrotation Yrotation Xrotation
		JOINT LeftUpLeg
		{
			OFFSET 1.363060 -1.794630 0.839290
			CHANNELS 3 Zrotation Yrotation Xrotation
			JOINT LeftLeg
			{
				OFFSET 2.448110 -6.726130 0.000000
				CHANNELS 3 Zrotation Yrotation Xrotation
				JOINT LeftFoot
				{
					OFFSET 2.562200 -7.039590 0.000000
					CHANNELS 3 Zrotation Yrotation Xrotation
					JOINT LeftToeBase
					{
						OFFSET 0.157640 -0.433110 2.322550
						CHANNELS 3 Zrotation Yrotation Xrotation
						End Site
						{
							OFFSET 0.000000 0.000000 0.000000
						}
					}
				}
			}
		}
	}
	JOINT RHipJoint
	{
		OFFSET 0.000000 0.000000 0.000000
		CHANNELS 3 Zrotation Yrotation Xrotation
		JOINT RightUpLeg
		{
			OFFSET -1.305520 -1.794630 0.839290
			CHANNELS 3 Zrotation Yrotation Xrotation
			JOINT RightLeg
			{
				OFFSET -2.542530 -6.985550 0.000000
				CHANNELS 3 Zrotation Yrotation Xrotation
				JOINT RightFoot
				{
					OFFSET -2.568260 -7.056230 0.000000
					CHANNELS 3 Zrotation Yrotation Xrotation
					JOINT RightToeBase
					{
						OFFSET -0.164730 -0.452590 2.363150
						CHANNELS 3 Zrotation Yrotation Xrotation
						End Site
						{
							OFFSET 0.000000 0.000000 0.000000
						}
					}
				}
			}
		}
	}
	JOINT LowerBack
	{
		OFFSET 0.000000 0.000000 0.000000
		CHANNELS 3 Zrotation Yrotation Xrotation
		JOINT Spine
		{
			OFFSET 0.028270 2.035590 -0.193380
			CHANNELS 3 Zrotation Yrotation Xrotation
			JOINT Spine1
			{
				OFFSET 0.056720 2.048850 -0.042750
				CHANNELS 3 Zrotation Yrotation Xrotation
				JOINT Neck
				{
					OFFSET 0.000000 0.000000 0.000000
					CHANNELS 3 Zrotation Yrotation Xrotation
					JOINT Neck1
					{
						OFFSET -0.054170 1.746240 0.172020
						CHANNELS 3 Zrotation Yrotation Xrotation
						JOINT Head
						{
							OFFSET 0.104070 1.761360 -0.123970
							CHANNELS 3 Zrotation Yrotation Xrotation
							End Site
							{
								OFFSET 0.000000 0.000000 0.000000
							}
						}
					}
				}
				JOINT LeftShoulder
				{
					OFFSET 0.000000 0.000000 0.000000
					CHANNELS 3 Zrotation Yrotation Xrotation
					JOINT LeftArm
					{
						OFFSET 3.362410 1.200890 -0.311210
						CHANNELS 3 Zrotation Yrotation Xrotation
						JOINT LeftForeArm
						{
							OFFSET 4.983000 -0.000000 -0.000000
							CHANNELS 3 Zrotation Yrotation Xrotation
							JOINT LeftHand
							{
								OFFSET 3.483560 -0.000000 -0.000000
								CHANNELS 3 Zrotation Yrotation Xrotation
								JOINT LeftFingerBase
								{
									OFFSET 0.000000 0.000000 0.000000
									CHANNELS 3 Zrotation Yrotation Xrotation
									JOINT LeftHandIndex1
									{
										OFFSET 0.715260 -0.000000 -0.000000
										CHANNELS 3 Zrotation Yrotation Xrotation
										End Site
										{
											OFFSET 0.000000 0.000000 0.000000
										}
									}
								}
								JOINT LThumb
								{
									OFFSET 0.000000 0.000000 0.000000
									CHANNELS 3 Zrotation Yrotation Xrotation
									End Site
									{
										OFFSET 0.000000 0.000000 0.000000
									}
								}
							}
						}
					}
				}
				JOINT RightShoulder
				{
					OFFSET 0.000000 0.000000 0.000000
					CHANNELS 3 Zrotation Yrotation Xrotation
					JOINT RightArm
					{
						OFFSET -3.136600 1.374050 -0.404650
						CHANNELS 3 Zrotation Yrotation Xrotation
						JOINT RightForeArm
						{
							OFFSET -5.241900 -0.000000 -0.000000
							CHANNELS 3 Zrotation Yrotation Xrotation
							JOINT RightHand
							{
								OFFSET -3.444170 -0.000000 -0.000000
								CHANNELS 3 Zrotation Yrotation Xrotation
								JOINT RightFingerBase
								{
									OFFSET 0.000000 0.000000 0.000000
									CHANNELS 3 Zrotation Yrotation Xrotation
									JOINT RightHandIndex1
									{
										OFFSET -0.622530 -0.000000 -0.000000
										CHANNELS 3 Zrotation Yrotation Xrotation
										End Site
										{
											OFFSET 0.000000 0.000000 0.000000
										}
									}
								}
								JOINT RThumb
								{
									OFFSET 0.000000 0.000000 0.000000
									CHANNELS 3 Zrotation Yrotation Xrotation
									End Site
									{
										OFFSET 0.000000 0.000000 0.000000
									}
								}
							}
						}
					}
				}
			}
		}
	}
}
MOTION
Frames: 5
Frame Time: 0.008333
0.308858 17.264430 1.320356 3.891860 8.465313 20.589765 -3.298025 -1.519031 0.492934 -16.971212 2.019089 -4.341723 -0.834538 5.902166 16.235214 2.611681 -13.174374 -6.633086 1.110287 -6.692138 -18.807365 -0.194353 2.701592 -4.812541 11.704579 2.123763 -48.393739 1.258338 -6.173096 13.361034 -1.149394 5.593206 -2.372263 -1.139495 6.753835 -18.997898 -1.146186 -2.568251 -7.627678 1.161227 -3.529361 -9.709690 -0.338312 -1.701686 -0.368721 -2.160078 -1.666641 -7.658329 4.952559 -2.564797 11.200486 0.631092 -1.016190 3.512821 12.843732 6.995694 -0.973985 -94.582302 -15.682424 41.007580 28.327566 -45.798620 -11.463428 -0.071936 -0.451074 -6.813924 22.711798 -18.561137 -7.441432 -7.125000 0.000000 0.000000 -3.409125 10.514867 2.734766 -13.238087 -6.680086 1.566426 102.128639 -24.511588 -43.454745 -3.505642 11.767790 -0.092823 -1.606313 -0.116488 40.876601 -17.017649 -34.686361 8.973704 7.125000 0.000000 0.000000 20.857517 -63.569576 -9.602333
0.304830 17.249696 1.460314 3.843160 8.507041 20.631176 -3.279316 -1.485287 0.519932 -16.806406 1.784970 -3.881367 -0.827967 5.913016 16.301251 2.561247 -13.066667 -6.219192 1.087476 -6.627416 -18.616227 -0.190647 2.679003 -4.802745 11.175905 2.802596 -48.019726 1.257414 -6.210050 13.420007 -1.095250 5.120763 -2.505083 -0.943998 6.170194 -17.284377 -0.991343 -2.566720 -7.718208 1.186221 -3.550533 -9.729539 -0.350565 -1.710500 -0.386094 -2.253504 -1.577290 -7.610560 4.980381 -2.443116 11.170957 0.669838 -0.959474 3.487306 12.833093 6.984885 -0.975127 -94.573166 -15.598547 40.950581 28.756280 -46.138246 -11.735056 -0.067450 -0.444655 -7.068925 22.747260 -18.646476 -7.489453 -7.125000 0.000000 0.000000 -3.395351 10.411903 2.730727 -13.220795 -6.680465 1.568017 102.119643 -24.693371 -43.051663 -3.554597 11.890877 -0.103788 -1.605222 -0.152528 40.534125 -16.518853 -34.952615 8.740253 7.125000 0.000000 0.000000 21.633400 -63.657627 -10.032206
0.310278 17.239138 1.601962 3.616472 8.846238 20.534003 -3.249717 -1.441916 0.553138 -16.381132 1.493290 -3.309632 -0.803393 5.955156 16.467271 2.531187 -13.065734 -5.809039 1.104160 -6.676527 -18.760579 -0.180325 2.637817 -4.775812 11.161743 2.933741 -47.678955 1.255279 -6.267187 13.557570 -1.078012 4.936789 -2.682376 -0.788663 5.654190 -15.788195 -0.469396 -2.587711 -7.704624 1.230734 -3.650076 -9.733097 -0.537014 -1.771832 -0.426259 -2.289706 -1.487131 -7.545570 4.978255 -2.319830 11.118660 0.690863 -0.902256 3.447243 12.828908 6.963903 -0.972375 -94.561272 -15.503721 40.933472 29.171496 -46.459235 -11.999842 -0.060775 -0.439204 -7.411929 22.810934 -18.686499 -7.528888 -7.125000 0.000000 0.000000 -3.360518 10.354372 2.706511 -13.199351 -6.677703 1.576661 102.159946 -24.936912 -41.787266 -3.659036 12.195227 -0.125894 -1.617153 -0.242413 39.304238 -15.802747 -35.635865 8.467188 7.125000 0.000000 0.000000 23.020900 -64.039479 -10.910710
0.309798 17.224177 1.745101 3.460614 9.084725 20.456251 -3.220935 -1.401855 0.581341 -16.039733 1.250412 -2.817852 -0.770769 6.023209 16.697458 2.506590 -13.108883 -5.431768 1.181334 -6.891472 -19.396912 -0.174051 2.603340 -4.754532 11.123974 3.162456 -47.391122 1.248971 -6.375288 13.827293 -1.009738 4.357165 -3.041407 -0.871320 5.913113 -16.543810 -0.118752 -2.615099 -7.698855 1.274967 -3.733322 -9.735577 -0.640655 -1.819286 -0.449878 -2.263473 -1.433081 -7.500896 4.903212 -2.239328 11.054347 0.660092 -0.866392 3.401528 12.829242 6.952086 -0.966646 -94.544943 -15.330076 40.852099 29.631078 -46.808651 -12.294298 -0.054790 -0.432399 -7.597784 22.894991 -18.712639 -7.570604 -7.125000 0.000000 0.000000 -3.311836 10.307418 2.670330 -13.179047 -6.671227 1.580365 102.176568 -25.103465 -41.040604 -3.735794 12.390018 -0.133048 -1.632744 -0.297160 38.569251 -15.555346 -36.282555 8.453402 7.125000 0.000000 0.000000 23.931623 -64.522576 -11.632173
0.305867 17.206654 1.889108 3.345998 9.264571 20.389808 -3.192627 -1.363720 0.606631 -15.747174 1.035951 -2.372627 -0.733456 6.106349 16.965009 2.485173 -13.177700 -5.073644 1.293729 -7.202978 -20.319715 -0.170135 2.572771 -4.736544 11.072459 3.447985 -47.134113 1.240233 -6.513063 14.173970 -0.911747 3.547163 -3.506259 -1.092554 6.623259 -18.610599 0.132144 -2.646212 -7.697636 1.319037 -3.807077 -9.737430 -0.696079 -1.858659 -0.463863 -2.200887 -1.400057 -7.468051 4.785710 -2.183737 10.983038 0.599161 -0.842961 3.352522 12.832208 6.945604 -0.959185 -94.526031 -15.110537 40.733306 30.116493 -47.174619 -12.606032 -0.049209 -0.424804 -7.692135 22.990916 -18.730694 -7.613648 -7.125000 0.000000 0.000000 -3.255089 10.266623 2.627182 -13.159407 -6.662587 1.581193 102.179402 -25.225189 -40.595408 -3.796435 12.521016 -0.131496 -1.650466 -0.331447 38.122434 -15.580861 -36.907957 8.590588 7.125000 0.000000 0.000000 24.564730 -65.064626 -12.262194
